# xmcd CD database file
#
# Track frame offsets:
#	150
#	14533
#	33268
#	52363
#	75023
#	97223
#	123978
#	145154
#	158969
#	178169
#	193321
#	211255
#	223451
#	228686
#
# Disc length: 3055 seconds
#
# Revision: 0
# Processed by: cddbd v1.5.2PL0 Copyright (c) Steve Scherf et al.
# Submitted via: CDex 1.51
#
DISCID=d40bed0e
DTITLE=Brian Kramer and The Couch Lizards - I Want  My Illusion
DYEAR=2006
DGENRE=Blues
TTITLE0=I want my illusion
TTITLE1=Mr Gray
TTITLE2=Lucky you are
TTITLE3=My 2 cents
TTITLE4=Reaper
TTITLE5=what she would say 2
TTITLE6=Winning notification2
TTITLE7=Where theres a will2
TTITLE8=Maybe some day
TTITLE9=Let it go
TTITLE10=Shed a little light
TTITLE11=Ada2
TTITLE12=Dala Delta
TTITLE13=felt good
EXTD=YEAR: 2006
EXTT0=
EXTT1=
EXTT2=
EXTT3=
EXTT4=
EXTT5=
EXTT6=
EXTT7=
EXTT8=
EXTT9=
EXTT10=
EXTT11=
EXTT12=
EXTT13=
PLAYORDER=
